# xmcd CD database file
#
# Track frame offsets:
#	150
#	11678
#	25804
#	37036
#	49921
#	66974
#	77586
#	88441
#	102863
#	116131
#	130631
#	143645
#	151941
#	166741
#	179774
#	193354
#	202528
#	215757
#	229557
#	243476
#	253459
#	267469
#	279702
#	292824
#	307300
#
# Disc length: 4280 seconds
#
# Revision: 0
# Processed by: cddbd v1.5.1PL0 Copyright (c) Steve Scherf et al.
# Submitted via: CDex 1.51
#
DISCID=7910b619
DTITLE=Nat King Cole - 50 Nat 'King' Cole Disc 2
DYEAR=1950
DGENRE=Jazz
TTITLE0=Makin Whoopee!
TTITLE1=But She's My Buddy's Chick
TTITLE2=You're The Cream In My Coffee
TTITLE3=Dream A Little Dream Of Me
TTITLE4=Body And Soul
TTITLE5=I Got Rhythm
TTITLE6=This Is My Night To Dream
TTITLE7=The Christmas Song
TTITLE8=Smoke Gets In Your Eyes
TTITLE9=Meet Me At No Special Place
TTITLE10=You Should Have Told Me
TTITLE11=Falling In And Out Of Love
TTITLE12=Mabel, Mabel
TTITLE13=Nature Boy
TTITLE14=On The Sunny Side Of The Street
TTITLE15=Let's Do Things
TTITLE16=How Deep Is The Ocean
TTITLE17=If I Had You
TTITLE18=What'll I Do?
TTITLE19=Swingin' The Blues
TTITLE20=My Lips Remember Your Kisses
TTITLE21=Please Consider Me
TTITLE22=One O'Clock Jump
TTITLE23=There, I've Said It Again
TTITLE24=Dixie Jamboree
EXTD=YEAR: 1950
EXTT0=
EXTT1=
EXTT2=
EXTT3=
EXTT4=
EXTT5=
EXTT6=
EXTT7=
EXTT8=
EXTT9=
EXTT10=
EXTT11=
EXTT12=
EXTT13=
EXTT14=
EXTT15=
EXTT16=
EXTT17=
EXTT18=
EXTT19=
EXTT20=
EXTT21=
EXTT22=
EXTT23=
EXTT24=
PLAYORDER=
